<?xml version="1.0" standalone="no"?>
<!DOCTYPE svg PUBLIC "-//W3C//DTD SVG 20010904//EN"
 "http://www.w3.org/TR/2001/REC-SVG-20010904/DTD/svg10.dtd">
<svg version="1.0" xmlns="http://www.w3.org/2000/svg"
 width="190.000000pt" height="190.000000pt" viewBox="0 0 190.000000 190.000000"
 preserveAspectRatio="xMidYMid meet">
<metadata>
Created by potrace 1.11, written by Peter Selinger 2001-2013
</metadata>
<g transform="translate(0.000000,190.000000) scale(0.100000,-0.100000)"
fill="#000000" stroke="none">
<path d="M895 1781 c-2 -1 -19 -5 -37 -7 -36 -4 -49 -6 -123 -25 -27 -6 -54
-15 -60 -19 -5 -4 -30 -15 -54 -24 -63 -24 -174 -99 -239 -159 -30 -29 -78
-88 -106 -132 -71 -109 -101 -180 -133 -310 -10 -42 -12 -252 -2 -300 6 -27
12 -61 15 -75 10 -49 69 -177 112 -243 40 -61 110 -139 175 -194 36 -30 158
-103 185 -109 12 -4 22 -11 22 -17 0 -6 3 -8 6 -4 3 3 25 -1 47 -9 80 -29 178
-42 286 -39 58 2 113 6 121 8 8 2 33 8 55 12 50 11 46 10 70 20 67 27 112 47
125 55 8 5 33 19 55 31 42 23 206 183 240 234 48 73 109 208 119 265 3 16 9
45 13 63 4 17 7 82 7 142 0 145 -9 197 -57 315 -113 277 -383 484 -672 515
-68 7 -166 11 -170 6z"/>
</g>
</svg>
